<svg xmlns="http://www.w3.org/2000/svg" width="168.44" height="341.98" viewBox="0 0 168.44 341.98"><defs><style>.a{fill:#fff;}</style></defs><title>Zeichenfläche 1</title><polygon class="a" points="126.42 28.92 85.69 59.88 42.83 30.97 83.55 0 126.42 28.92"/><polygon class="a" points="126.42 28.92 126.92 277.63 86.2 308.6 85.69 59.88 126.42 28.92"/><polygon class="a" points="85.69 59.88 86.2 308.6 43.33 279.69 42.83 30.97 85.69 59.88"/><path d="M43.7,189.62l35.68,33.94v14.61L43.75,220V209.87l8.37,4.51v-6.91l-8.38-7.66ZM71.51,225.3v-.59c-.5-.4-1.08-.9-1.75-1.47s-1.27-1.1-2.12-1.86-1.8-1.6-2.87-2.53L59,213.72v4.51l5.64,3.09,3,1.66c.85.48,1.56.88,2.12,1.23s1.25.75,1.75,1.09"/><polygon points="79.32 185.78 79.33 195.55 66.57 186.21 66.58 194.15 79.34 203.49 79.36 213.25 43.7 187.16 43.69 177.4 57.45 187.47 57.44 179.53 43.67 169.45 43.66 159.69 79.32 185.78"/><polygon points="79.27 154.39 79.28 164.15 66.52 154.81 66.53 162.76 79.3 172.1 79.31 181.86 43.65 155.77 43.64 146.01 57.4 156.08 57.39 148.13 43.62 138.06 43.61 128.3 79.27 154.39"/><path d="M61.17,110.19a59.19,59.19,0,0,1,7.35,6.34,46,46,0,0,1,5.89,7.24,36,36,0,0,1,3.9,7.92,25.91,25.91,0,0,1,1.43,8.46,9.38,9.38,0,0,1-1,4.88,4.48,4.48,0,0,1-2.41,2.06,5.46,5.46,0,0,1-3,.06,10.38,10.38,0,0,1-2.71-1l-2.51-11.24a2.32,2.32,0,0,0,.84.32,1.38,1.38,0,0,0,.85-.09,1.4,1.4,0,0,0,.68-.68,3.1,3.1,0,0,0,.26-1.44,9.86,9.86,0,0,0-2.47-6.15,37,37,0,0,0-7.16-6.53Q52,113.68,52,119.23a7.16,7.16,0,0,0,1,3.61,12.58,12.58,0,0,0,2.07,2.74l-2.48,7.35a35,35,0,0,1-3.19-3.37,29.3,29.3,0,0,1-3.1-4.56A30.7,30.7,0,0,1,44,119.49a20.14,20.14,0,0,1-.93-6.12q0-4.37,1.36-6.48a4.83,4.83,0,0,1,3.78-2.33A11.65,11.65,0,0,1,54,105.85,40.86,40.86,0,0,1,61.17,110.19Z"/><path d="M78.23,98a25,25,0,0,1,1.46,8.44c0,2.84-.45,5-1.36,6.35a4.9,4.9,0,0,1-3.75,2.33,11.68,11.68,0,0,1-5.69-1.23,38.38,38.38,0,0,1-7.08-4.22,58.81,58.81,0,0,1-7.13-6.15,48.19,48.19,0,0,1-6-7.28,38.53,38.53,0,0,1-4.12-8.09A24.54,24.54,0,0,1,43,79.67q0-4.17,1.51-6.12a5.28,5.28,0,0,1,4-2.11,12.89,12.89,0,0,1,5.76,1.24,36.08,36.08,0,0,1,6.81,4,62.55,62.55,0,0,1,7.27,6.23,45,45,0,0,1,5.89,7.17A35.88,35.88,0,0,1,78.23,98Zm-8.13,4.16a2.62,2.62,0,0,0,.66-2.11,10.64,10.64,0,0,0-2.65-6.47,35.58,35.58,0,0,0-7-6.59c-2.89-2.12-5.14-3.27-6.73-3.46S52,84.24,52,86.21a10.5,10.5,0,0,0,2.55,6.19,33.71,33.71,0,0,0,7,6.65,30.28,30.28,0,0,0,3.73,2.39,10.24,10.24,0,0,0,2.92,1.11,2.22,2.22,0,0,0,1.9-.38"/><polygon points="79.12 59.97 79.13 69.73 66.37 60.39 66.38 68.34 79.15 77.68 79.16 87.44 43.5 61.35 43.49 51.59 57.25 61.66 57.24 53.71 43.48 43.64 43.46 33.88 79.12 59.97"/><path d="M53,258.13l2.51,10.51a3.34,3.34,0,0,0-1.6-.44,1.6,1.6,0,0,0-1.09.65,3.77,3.77,0,0,0-.6,2.14,6.07,6.07,0,0,0,.53,3,5.52,5.52,0,0,0,1.72,2.14c.7.51,1.26.68,1.67.51a1.92,1.92,0,0,0,1-1.06,9.21,9.21,0,0,0,.63-1.9c.16-.73.32-1.41.49-2q1-3.71,4-3.93,2.71-.21,6.67,2.69l.65.49a31.09,31.09,0,0,1,3.93,3.68,25.88,25.88,0,0,1,3.31,4.61,26.24,26.24,0,0,1,2.33,5.45,21.37,21.37,0,0,1,.88,6.15,10.6,10.6,0,0,1-.39,3.17,5.38,5.38,0,0,1-1,2,3.16,3.16,0,0,1-1.49,1,6.5,6.5,0,0,1-1.69.28A10.62,10.62,0,0,1,70.72,296l-2.51-10.4a4.16,4.16,0,0,0,1.5.5,2.24,2.24,0,0,0,1.07-.27c.35-.19.56-.63.62-1.34a4.25,4.25,0,0,0-.4-2.22,5.24,5.24,0,0,0-1.35-1.75l-.25-.2a1.66,1.66,0,0,0-1.42-.46,1.89,1.89,0,0,0-1,.95,7.37,7.37,0,0,0-.64,1.83c-.17.73-.35,1.41-.55,2.05-.79,2.65-2.21,4-4.25,4.11S57.39,288,54.75,286l-.66-.5a28.37,28.37,0,0,1-3.92-3.75,29.18,29.18,0,0,1-3.45-4.87A27.54,27.54,0,0,1,44.26,271a23.68,23.68,0,0,1-.94-6.64,14.42,14.42,0,0,1,.42-3.81,6.87,6.87,0,0,1,1.09-2.36,3.78,3.78,0,0,1,1.54-1.2,5.33,5.33,0,0,1,1.77-.37A9.25,9.25,0,0,1,53,258.13Z"/><path d="M79.41,247.84v9.85l-21.86-16a14.1,14.1,0,0,0-4.1-2.32c-1-.28-1.52.31-1.52,1.78a6.26,6.26,0,0,0,1.48,4,22.78,22.78,0,0,0,4.17,3.8l21.86,16v9.86L56.47,258a38.26,38.26,0,0,1-6.19-5.53,30.27,30.27,0,0,1-4.07-5.78A23.36,23.36,0,0,1,44,240.75a26.4,26.4,0,0,1-.68-5.94,15.08,15.08,0,0,1,.68-4.95,4.13,4.13,0,0,1,2.24-2.61,5.86,5.86,0,0,1,4.06.24A24.73,24.73,0,0,1,56.43,231Z"/><polygon points="116.67 35.54 105.96 43.27 90.78 32.24 82.06 38.53 97.24 49.56 86.52 57.29 47.19 28.72 57.91 20.99 71.99 31.22 80.72 24.92 66.64 14.7 77.35 6.97 116.67 35.54"/><polygon points="124.25 239.51 124.21 248.63 110.46 259.26 110.43 266.69 124.18 256.06 124.15 265.18 88.52 292.73 88.55 283.6 101.31 273.74 101.33 266.31 88.58 276.17 88.61 267.05 124.25 239.51"/><path d="M123.3,216c1,1.13,1.52,3,1.51,5.69a22.45,22.45,0,0,1-1.54,7.93,39.86,39.86,0,0,1-4,7.83,52.8,52.8,0,0,1-5.77,7.22,61.25,61.25,0,0,1-6.8,6.18,50.12,50.12,0,0,1-7.28,4.77,14.35,14.35,0,0,1-5.87,1.87,4.54,4.54,0,0,1-3.92-1.66c-1-1.17-1.43-3.09-1.42-5.78a24.19,24.19,0,0,1,1.4-8,35.83,35.83,0,0,1,3.78-7.65,48.85,48.85,0,0,1,5.69-7.14,64.66,64.66,0,0,1,7.08-6.36,47,47,0,0,1,7.12-4.64,15.1,15.1,0,0,1,6-1.88A4.88,4.88,0,0,1,123.3,216Zm-9.81,18.55a10.36,10.36,0,0,0,2.4-6c0-1.77-.83-2.47-2.52-2.09s-4,1.72-7,4a42.45,42.45,0,0,0-3.74,3.21,29.76,29.76,0,0,0-2.93,3.22A15.28,15.28,0,0,0,97.79,240a7.4,7.4,0,0,0-.69,3c0,1.93.87,2.66,2.63,2.2s4.1-1.82,7-4.08a35,35,0,0,0,6.74-6.58"/><path d="M97.47,199.62l2.46,6.87a7.59,7.59,0,0,0-.85.94,9.47,9.47,0,0,0-.85,1.31,8.91,8.91,0,0,0-.68,1.63,5.82,5.82,0,0,0-.28,1.75c0,1.89.81,2.61,2.46,2.14s4-1.89,7.14-4.31q9.07-7,9.09-12.19c0-1.19-.32-1.85-1-2a3.08,3.08,0,0,0-2.07.46l2.53-10.5a15,15,0,0,1,3.19-1.51,5.48,5.48,0,0,1,3.08-.23,3.84,3.84,0,0,1,2.3,1.74,8,8,0,0,1,.9,4.38,24.3,24.3,0,0,1-1.4,8.05,34.69,34.69,0,0,1-3.8,7.7A47.26,47.26,0,0,1,114,213a65.68,65.68,0,0,1-7.2,6.44,48,48,0,0,1-7.35,4.79,14,14,0,0,1-5.88,1.8,4.52,4.52,0,0,1-3.86-1.75q-1.41-1.78-1.4-5.82a18.83,18.83,0,0,1,1-6,32.42,32.42,0,0,1,5.44-9.89A30.37,30.37,0,0,1,97.47,199.62Z"/><polygon points="124.58 151.23 124.55 160.35 110.8 170.98 110.77 178.41 124.52 167.78 124.48 176.9 88.85 204.44 88.89 195.32 101.64 185.46 101.67 178.03 88.92 187.89 88.95 178.77 124.58 151.23"/><polygon points="124.7 121.88 124.66 131 110.91 141.63 110.88 149.06 124.63 138.43 124.6 147.55 88.97 175.09 89 165.97 101.76 156.11 101.79 148.68 89.03 158.54 89.07 149.42 124.7 121.88"/><path d="M124.78,100.64l-8.38,8v6.46l8.36-5v9.54L89.1,139.78l.06-13.66,35.65-35Zm-15.32,18.7v-4.22l-5.64,5.32-3,2.77c-.85.8-1.56,1.44-2.12,1.93s-1.25,1.13-1.75,1.54v.56c.5-.36,1.08-.75,1.75-1.18l2.11-1.35,2.86-1.8,5.74-3.57"/><path d="M114.12,45.36l.69-.52a17.73,17.73,0,0,1,3.91-2.21,6.21,6.21,0,0,1,3.43-.45,3.53,3.53,0,0,1,2.42,1.9,9.81,9.81,0,0,1,.9,4.86,19.58,19.58,0,0,1-.43,4.18,26.31,26.31,0,0,1-2.66,7.18c-.59,1.06-1.18,2-1.78,2.92a31.5,31.5,0,0,1-4.84,5.66l-2.46-6.19a11.73,11.73,0,0,0,1.6-1.92,12.22,12.22,0,0,0,1.1-2.2,9.42,9.42,0,0,0,.6-2.87c.08-1.16-.09-1.84-.51-2.07s-1-.06-1.72.5a6.21,6.21,0,0,0-1.67,2,12.64,12.64,0,0,0-1,2.44c-.25.87-.46,1.76-.63,2.68s-.34,1.8-.51,2.63a27.63,27.63,0,0,1-4,9.49,29.71,29.71,0,0,1-6.67,7.21l-.66.49A19.8,19.8,0,0,1,95.3,83.3a5.86,5.86,0,0,1-3.3.52,3.27,3.27,0,0,1-2.3-1.72,9,9,0,0,1-.86-4.48,17,17,0,0,1,.41-3.55,23.77,23.77,0,0,1,1.06-3.39,25.69,25.69,0,0,1,1.5-3.13q.85-1.48,1.71-2.73a38.72,38.72,0,0,1,4.63-5.51l2.47,6.1a12.76,12.76,0,0,0-1.5,1.7A16.15,16.15,0,0,0,98,68.93a5.6,5.6,0,0,0-.62,2.15c-.08.85,0,1.35.39,1.51s.78,0,1.34-.33l.27-.2a5.31,5.31,0,0,0,1.4-1.62,12,12,0,0,0,1-2.37,20.26,20.26,0,0,0,.66-2.66c.17-.92.35-1.83.55-2.72a29.32,29.32,0,0,1,4.29-10A30.56,30.56,0,0,1,114.12,45.36Z"/><polygon class="a" points="168.44 94.49 127.72 125.45 84.85 96.54 125.57 65.57 168.44 94.49"/><polygon class="a" points="168.44 94.49 167.94 305.2 127.22 336.17 127.72 125.45 168.44 94.49"/><polygon class="a" points="127.72 125.45 127.22 336.17 84.35 307.26 84.85 96.54 127.72 125.45"/><path d="M94.61,236l29.44,28v12.06l-29.42-15v-8.37l6.91,3.71v-5.7l-6.92-6.32Zm23,29.44V265c-.42-.33-.9-.74-1.44-1.22s-1-.9-1.76-1.53L112,260.12l-4.74-4.23v3.72l4.65,2.55,2.44,1.37c.71.39,1.29.73,1.76,1s1,.62,1.44.89"/><polygon points="124 232.83 124.01 240.89 113.48 233.18 113.49 239.74 124.02 247.45 124.03 255.5 94.61 233.97 94.59 225.91 105.95 234.23 105.94 227.67 94.58 219.36 94.57 211.3 124 232.83"/><polygon points="123.96 206.93 123.97 214.98 113.44 207.27 113.45 213.83 123.98 221.54 123.99 229.6 94.56 208.06 94.55 200.01 105.91 208.32 105.9 201.76 94.54 193.45 94.53 185.39 123.96 206.93"/><path d="M109,170.45a48.68,48.68,0,0,1,6.07,5.23,37.86,37.86,0,0,1,4.86,6,29.6,29.6,0,0,1,3.22,6.53,21.39,21.39,0,0,1,1.18,7,7.82,7.82,0,0,1-.82,4,3.71,3.71,0,0,1-2,1.7,4.51,4.51,0,0,1-2.47,0,8.92,8.92,0,0,1-2.24-.85l-2.07-9.28a2.16,2.16,0,0,0,.69.27,1.2,1.2,0,0,0,.7-.08,1.17,1.17,0,0,0,.56-.56,2.55,2.55,0,0,0,.22-1.19,8.17,8.17,0,0,0-2-5.07,30.32,30.32,0,0,0-5.91-5.4q-7.5-5.48-7.48-.91a6,6,0,0,0,.8,3A10.19,10.19,0,0,0,104,183.1l-2,6.07a25.68,25.68,0,0,1-2.64-2.78,24,24,0,0,1-2.55-3.77,24.65,24.65,0,0,1-1.92-4.52,17,17,0,0,1-.77-5,10,10,0,0,1,1.12-5.35,4,4,0,0,1,3.12-1.92,9.59,9.59,0,0,1,4.73,1.06A33.81,33.81,0,0,1,109,170.45Z"/><path d="M123.1,160.39a20.91,20.91,0,0,1,1.21,7,9.74,9.74,0,0,1-1.12,5.24,4,4,0,0,1-3.1,1.92,9.53,9.53,0,0,1-4.69-1,31.74,31.74,0,0,1-5.85-3.49,49,49,0,0,1-5.88-5.07,39.45,39.45,0,0,1-4.93-6,32.32,32.32,0,0,1-3.4-6.68,20.18,20.18,0,0,1-1.29-7,8.27,8.27,0,0,1,1.25-5.06,4.39,4.39,0,0,1,3.3-1.74,10.59,10.59,0,0,1,4.76,1A29.69,29.69,0,0,1,109,142.8a50.69,50.69,0,0,1,6,5.14,38.34,38.34,0,0,1,4.87,5.92A29.42,29.42,0,0,1,123.1,160.39Zm-6.71,3.44a2.26,2.26,0,0,0,.55-1.74,8.79,8.79,0,0,0-2.19-5.34,29.06,29.06,0,0,0-5.8-5.44q-3.58-2.62-5.56-2.85c-1.31-.16-2,.57-2,2.19a8.76,8.76,0,0,0,2.11,5.12,27.72,27.72,0,0,0,5.81,5.48,23.2,23.2,0,0,0,3.08,2,8.29,8.29,0,0,0,2.41.92,1.82,1.82,0,0,0,1.56-.31"/><polygon points="123.84 129 123.85 137.06 113.31 129.35 113.32 135.91 123.86 143.62 123.87 151.67 94.44 130.14 94.43 122.08 105.79 130.39 105.78 123.83 94.42 115.52 94.41 107.47 123.84 129"/><path d="M102.26,292.54l2.07,8.67a2.78,2.78,0,0,0-1.32-.36,1.37,1.37,0,0,0-.9.54,3.23,3.23,0,0,0-.49,1.76,5,5,0,0,0,.44,2.5,4.38,4.38,0,0,0,1.42,1.77c.58.42,1,.57,1.37.42a1.57,1.57,0,0,0,.83-.87,8.72,8.72,0,0,0,.51-1.57c.13-.6.27-1.16.41-1.68.57-2,1.66-3.12,3.28-3.24s3.33.63,5.5,2.22l.55.41a26.21,26.21,0,0,1,3.23,3,21.68,21.68,0,0,1,4.66,8.3,18.19,18.19,0,0,1,.73,5.08,8.86,8.86,0,0,1-.33,2.61,4.54,4.54,0,0,1-.86,1.66,2.69,2.69,0,0,1-1.23.84,5.13,5.13,0,0,1-1.4.23,8.83,8.83,0,0,1-3.82-1.1l-2.07-8.59a3.39,3.39,0,0,0,1.23.42,1.84,1.84,0,0,0,.89-.23c.28-.15.45-.52.51-1.1a3.45,3.45,0,0,0-.34-1.84A4.35,4.35,0,0,0,116,311l-.21-.16a1.34,1.34,0,0,0-1.16-.38,1.5,1.5,0,0,0-.85.77,6.23,6.23,0,0,0-.53,1.52c-.14.6-.29,1.16-.45,1.69q-1,3.29-3.51,3.39c-1.56.07-3.42-.69-5.6-2.29-.18-.13-.37-.26-.55-.41A23.74,23.74,0,0,1,99.93,312a22.54,22.54,0,0,1-4.85-8.81,19.93,19.93,0,0,1-.77-5.48,11.47,11.47,0,0,1,.35-3.14,5.42,5.42,0,0,1,.9-1.95,2.9,2.9,0,0,1,1.27-1,4.29,4.29,0,0,1,1.46-.31A7.67,7.67,0,0,1,102.26,292.54Z"/><path d="M124.08,284.05v8.13l-18-13.2a11.89,11.89,0,0,0-3.38-1.91c-.84-.24-1.26.26-1.26,1.47a5.17,5.17,0,0,0,1.22,3.34,19.73,19.73,0,0,0,3.43,3.09l18,13.2v8.14l-19-13.88a32.61,32.61,0,0,1-5.11-4.57,26,26,0,0,1-3.36-4.77,19.41,19.41,0,0,1-1.85-4.89,21.86,21.86,0,0,1-.56-4.9,12,12,0,0,1,.56-4.09,3.39,3.39,0,0,1,1.85-2.15,4.84,4.84,0,0,1,3.35.19,20.41,20.41,0,0,1,5.09,2.91Z"/><polygon points="161.38 100.32 150.67 108.05 135.49 97.02 126.77 103.31 141.95 114.34 131.23 122.07 91.9 93.5 102.62 85.77 116.7 96 125.42 89.7 111.35 79.47 122.06 71.75 161.38 100.32"/><polygon points="161.08 277.17 161.05 284.7 149.7 293.47 149.68 299.6 161.03 290.83 161 298.36 131.59 321.09 131.62 313.56 142.15 305.42 142.17 299.29 131.64 307.43 131.67 299.9 161.08 277.17"/><path d="M160.3,257.74c.84.93,1.25,2.49,1.25,4.69a18.61,18.61,0,0,1-1.28,6.55,32.59,32.59,0,0,1-3.32,6.46,44.32,44.32,0,0,1-4.76,6,49.36,49.36,0,0,1-5.62,5.1,41.92,41.92,0,0,1-6,3.94,11.71,11.71,0,0,1-4.85,1.54,3.74,3.74,0,0,1-3.23-1.37q-1.19-1.44-1.17-4.77a19.82,19.82,0,0,1,1.15-6.56,30,30,0,0,1,3.12-6.32,39.83,39.83,0,0,1,4.7-5.89,52,52,0,0,1,5.84-5.25A39.36,39.36,0,0,1,152,258a12.5,12.5,0,0,1,4.91-1.55A4,4,0,0,1,160.3,257.74Zm-8.1,15.31a8.46,8.46,0,0,0,2-4.93c0-1.46-.68-2-2.08-1.73s-3.33,1.42-5.79,3.33a35.39,35.39,0,0,0-3.09,2.65,24.31,24.31,0,0,0-2.41,2.66,12.93,12.93,0,0,0-1.57,2.56,6.26,6.26,0,0,0-.56,2.44c0,1.59.71,2.2,2.16,1.82a18,18,0,0,0,5.8-3.37,28.6,28.6,0,0,0,5.56-5.43"/><path d="M139,244.25l2,5.68a5.12,5.12,0,0,0-.7.77,6.87,6.87,0,0,0-.7,1.08,7.25,7.25,0,0,0-.56,1.35,4.71,4.71,0,0,0-.23,1.44c0,1.56.67,2.15,2,1.77a20.43,20.43,0,0,0,5.9-3.56q7.48-5.79,7.5-10.06c0-1-.26-1.53-.79-1.62a2.63,2.63,0,0,0-1.71.38l2.09-8.67a12.89,12.89,0,0,1,2.63-1.24,4.41,4.41,0,0,1,2.54-.19,3.13,3.13,0,0,1,1.9,1.44,6.57,6.57,0,0,1,.75,3.61,20.56,20.56,0,0,1-1.16,6.64,28.52,28.52,0,0,1-3.14,6.36,39.46,39.46,0,0,1-4.73,5.9,57.17,57.17,0,0,1-6,5.32,40,40,0,0,1-6.07,4,11.48,11.48,0,0,1-4.84,1.48,3.73,3.73,0,0,1-3.19-1.44c-.78-1-1.16-2.59-1.15-4.81a15.21,15.21,0,0,1,.84-5,25.4,25.4,0,0,1,2-4.49,25.77,25.77,0,0,1,2.48-3.65A25,25,0,0,1,139,244.25Z"/><polygon points="161.36 204.31 161.33 211.84 149.98 220.62 149.96 226.75 161.31 217.97 161.28 225.5 131.87 248.24 131.9 240.7 142.43 232.57 142.45 226.43 131.92 234.57 131.95 227.04 161.36 204.31"/><polygon points="161.45 180.09 161.42 187.62 150.07 196.4 150.05 202.53 161.4 193.75 161.37 201.28 131.96 224.01 131.99 216.48 142.52 208.35 142.54 202.22 132.02 210.35 132.05 202.82 161.45 180.09"/><path d="M151.19,140.66a22.38,22.38,0,0,1,5.1-3.16,5.27,5.27,0,0,1,3.34-.44,2.79,2.79,0,0,1,1.84,1.88,11.22,11.22,0,0,1,.54,3.77,20.46,20.46,0,0,1-.59,4.67,19.46,19.46,0,0,1-1.87,4.7,25.54,25.54,0,0,1-3.36,4.71,36.41,36.41,0,0,1-5.08,4.69l-19,14.66v-7.61l18-13.94a21.48,21.48,0,0,0,3.39-3.14,4.93,4.93,0,0,0,1.26-3.21q0-1.73-1.2-1.35a13.29,13.29,0,0,0-3.43,2.1l-18,13.94v-7.61Z"/><path d="M161.52,162.56l-6.91,6.6v5.33l6.9-4.17v7.87l-29.38,16.68V183.59l29.43-28.86ZM148.87,178v-3.48l-4.66,4.39-2.44,2.28c-.7.66-1.29,1.19-1.75,1.6s-1,.93-1.45,1.27v.45l1.45-1c.56-.39,1-.68,1.74-1.12l2.36-1.49,4.73-2.94"/><path d="M152.72,116.94l.57-.43a14.89,14.89,0,0,1,3.23-1.82,5,5,0,0,1,2.83-.37,2.91,2.91,0,0,1,2,1.56,8.23,8.23,0,0,1,.74,4,16.54,16.54,0,0,1-.36,3.44,20.14,20.14,0,0,1-.91,3.14,22,22,0,0,1-1.28,2.79c-.49.87-1,1.67-1.47,2.41a26.26,26.26,0,0,1-4,4.67l-2-5.1a9.14,9.14,0,0,0,1.32-1.59,10.22,10.22,0,0,0,.91-1.81,7.72,7.72,0,0,0,.5-2.37q.09-1.44-.42-1.71c-.34-.2-.81,0-1.42.41a5.47,5.47,0,0,0-1.38,1.61,11.21,11.21,0,0,0-.82,2,21,21,0,0,0-.52,2.22c-.15.76-.28,1.48-.42,2.17A23.09,23.09,0,0,1,146.5,140a24.21,24.21,0,0,1-5.5,6c-.18.14-.36.28-.55.41a16.3,16.3,0,0,1-3.23,1.88,4.81,4.81,0,0,1-2.72.42,2.67,2.67,0,0,1-1.9-1.41,7.39,7.39,0,0,1-.71-3.7,13.72,13.72,0,0,1,.34-2.93,19.71,19.71,0,0,1,.87-2.8,20.39,20.39,0,0,1,1.24-2.58c.47-.82.94-1.57,1.41-2.26a31.31,31.31,0,0,1,3.83-4.54l2,5a9.78,9.78,0,0,0-1.24,1.41,15,15,0,0,0-.89,1.49,4.85,4.85,0,0,0-.51,1.78c-.06.7.05,1.11.32,1.24s.64,0,1.11-.27l.22-.16a4.66,4.66,0,0,0,1.16-1.34,10.11,10.11,0,0,0,.85-2,20.58,20.58,0,0,0,.54-2.19c.14-.76.29-1.51.46-2.24a24.25,24.25,0,0,1,3.54-8.3A25.14,25.14,0,0,1,152.72,116.94Z"/><polygon class="a" points="86.89 137.55 44.56 169.74 0 139.68 42.33 107.49 86.89 137.55"/><polygon class="a" points="86.89 137.55 87.41 309.8 45.08 341.98 44.56 169.74 86.89 137.55"/><polygon class="a" points="44.56 169.74 45.08 341.98 0.52 311.93 0 139.68 44.56 169.74"/><path d="M4.93,145.64l35.68,33.94V194.2L5,176.05V165.9l8.37,4.51V163.5L5,155.84Zm27.81,35.68v-.58c-.5-.41-1.08-.9-1.75-1.48s-1.27-1.09-2.12-1.84-1.8-1.61-2.87-2.54l-5.73-5.13v4.51l5.64,3.09,3,1.66c.84.48,1.55.89,2.11,1.23s1.25.75,1.75,1.08"/><polygon points="40.65 203.86 40.66 213.72 13.88 194.12 13.89 203.69 5.01 197.19 4.99 177.77 40.65 203.86"/><polygon points="40.67 218.87 40.71 244.87 32.03 238.52 32.02 230.43 5.04 210.68 5.02 200.87 32.01 220.62 31.99 212.52 40.67 218.87"/><path d="M5.05,219.51l35.66,26.1V258.7a12.6,12.6,0,0,1-.72,4.79,3.63,3.63,0,0,1-2,2.12,4.37,4.37,0,0,1-2.9-.1,14.49,14.49,0,0,1-3.49-1.87l-.22-.17A22.49,22.49,0,0,1,27,259.29a17.56,17.56,0,0,1-2.8-4.64l-.34-.25a1.91,1.91,0,0,1-1.05,1.19,3.33,3.33,0,0,1-1.82.19,8.79,8.79,0,0,1-2.41-.76,16.93,16.93,0,0,1-2.75-1.64,28,28,0,0,1-4.06-3.71A25.41,25.41,0,0,1,6,239.27a20.81,20.81,0,0,1-.91-6.17Zm14.54,22.86V239.5l-6-4.38v2.62a7,7,0,0,0,1,3.56,7.89,7.89,0,0,0,2.09,2.47,2.52,2.52,0,0,0,2.05.61c.6-.16.9-.83.9-2m12.56,8.88V248.7l-4.74-3.47v2.84a6.46,6.46,0,0,0,2.35,4.84,1.69,1.69,0,0,0,1.65.37c.49-.19.75-.86.74-2"/><path d="M5.09,247.17l35.68,34v14.61L5.14,277.58V267.43l8.37,4.51V265l-8.38-7.65ZM32.9,282.85v-.58c-.5-.41-1.08-.89-1.75-1.48S29.88,279.7,29,279l-2.87-2.54-5.73-5.13v4.51L26,278.93l3,1.66c.84.47,1.55.88,2.11,1.23s1.25.75,1.75,1.08"/><path d="M40.81,305.4v9.86L19,299.26a14.77,14.77,0,0,0-4.11-2.32c-1-.28-1.52.31-1.51,1.79a6.17,6.17,0,0,0,1.47,4A22.64,22.64,0,0,0,19,306.52l21.86,16v9.86l-23-16.82A39.36,39.36,0,0,1,11.67,310a31,31,0,0,1-4.07-5.77,23.78,23.78,0,0,1-2.25-5.93,27,27,0,0,1-.68-5.94,14.61,14.61,0,0,1,.69-5,4,4,0,0,1,2.24-2.6,5.74,5.74,0,0,1,4.06.23,24.4,24.4,0,0,1,6.15,3.52Z"/><path d="M64.66,150.81l-11-5.44-7.6,5.48,7.57,7.92-11.2,8.08L11.71,132.06l16.05-11.57,48.05,22.28Zm-25-6.45,5-3.57-7.35-3.7-3.84-2c-1.1-.56-2-1-2.69-1.45s-1.56-.86-2.14-1.23l-.64.46c.51.42,1.08.94,1.7,1.55s1.23,1.15,2,1.94L34.4,139l5.3,5.33"/><path d="M69.92,165a27.45,27.45,0,0,1,6.18-3.85,6.43,6.43,0,0,1,4.05-.52,3.4,3.4,0,0,1,2.23,2.28,13.39,13.39,0,0,1,.65,4.57,23.91,23.91,0,0,1-.72,5.65,23.37,23.37,0,0,1-2.26,5.7,31.11,31.11,0,0,1-4,5.69,43.59,43.59,0,0,1-6.16,5.68l-23,17.8v-9.22l21.84-16.89a26.43,26.43,0,0,0,4.11-3.8,6.06,6.06,0,0,0,1.53-3.89c0-1.41-.48-1.95-1.46-1.63a15.38,15.38,0,0,0-4.15,2.54L46.91,192v-9.22Z"/><path d="M82.07,286.44l-8.37,8v6.47l8.3-5.07v9.54l-35.6,20.2.05-13.66,35.66-35ZM66.75,305.15v-4.22l-5.63,5.31-3,2.78c-.85.79-1.55,1.43-2.12,1.93s-1.25,1.12-1.74,1.54V313c.5-.35,1.08-.74,1.75-1.16s1.27-.83,2.11-1.36L61,308.7l5.73-3.55"/><polygon points="82.19 257.18 82.11 275.35 46.48 302.89 46.52 293.67 73.28 272.98 73.31 264.04 82.19 257.18"/><polygon points="55.3 257.84 55.27 265.41 82.23 244.57 82.2 253.74 55.23 274.58 55.21 282.15 46.54 288.85 46.63 264.54 55.3 257.84"/><path d="M81.44,219.15a8.69,8.69,0,0,1,.87,4.46v12.7L46.63,263.86V251.61a21.06,21.06,0,0,1,.74-5.53,22.84,22.84,0,0,1,2-4.85,23.62,23.62,0,0,1,2.9-4.11,27.56,27.56,0,0,1,3.49-3.34l.23-.17a13.57,13.57,0,0,1,4.35-2.45c1.33-.4,2.26-.3,2.78.27l.35-.27a12.13,12.13,0,0,1,1.06-2.65,21.51,21.51,0,0,1,1.82-2.82,29.6,29.6,0,0,1,2.43-2.82,25.39,25.39,0,0,1,2.73-2.45A18.75,18.75,0,0,1,75.6,218a6.36,6.36,0,0,1,3.46-.57A3.45,3.45,0,0,1,81.44,219.15Zm-7.66,15V231.7c0-1.19-.31-1.84-.94-1.94a2.73,2.73,0,0,0-2.09.74,8.4,8.4,0,0,0-2,2.4,6.18,6.18,0,0,0-.91,3.19v2.68l6-4.62M60,244.81v-2.65c0-.95-.23-1.49-.71-1.6a1.91,1.91,0,0,0-1.62.52,6.64,6.64,0,0,0-1.65,2,5.94,5.94,0,0,0-.75,3v2.38L60,244.81"/><path d="M82.44,191.51l-8.38,8L74,206,82.36,201v9.54L46.76,230.7l.05-13.7,35.66-35ZM67.11,210.22V206l-5.64,5.31-3,2.78c-.84.79-1.55,1.43-2.12,1.93s-1.24,1.12-1.74,1.54v.54c.5-.35,1.08-.74,1.74-1.16s1.27-.83,2.12-1.36l2.86-1.81,5.73-3.55"/></svg>