<svg xmlns="http://www.w3.org/2000/svg" width="673.82" height="530.39" viewBox="0 0 673.82 530.39"><title>Zeichenfläche 1</title><path d="M25.54,45.65V65.88a9.59,9.59,0,0,1-.91,4.77,3.28,3.28,0,0,1-2.54,1.72,7.35,7.35,0,0,1-3.9-.89,30.52,30.52,0,0,1-5-3,41.5,41.5,0,0,1-5-4.26,29.27,29.27,0,0,1-3.87-4.8A22.82,22.82,0,0,1,1.93,54,20.9,20.9,0,0,1,1,47.92V27.69l9,6.56V53.48a12.26,12.26,0,0,0,.63,4.08,7,7,0,0,0,2.64,3.26c1.36,1,2.26,1.22,2.69.68a5.53,5.53,0,0,0,.64-3.19V39.08Z"/><path d="M52.19,84.57a11.34,11.34,0,0,1,.34,2.66,6.44,6.44,0,0,1-.66,3.08,2.87,2.87,0,0,1-2,1.55,6.45,6.45,0,0,1-3.5-.45,21.14,21.14,0,0,1-5-2.89L29,79.52,29,48.14l11.92,8.72A36.88,36.88,0,0,1,45.65,61a25.57,25.57,0,0,1,3.23,4.1A16.75,16.75,0,0,1,50.72,69a13.23,13.23,0,0,1,.63,3.53,4.9,4.9,0,0,1-.89,3.38,2.21,2.21,0,0,1-2.36.73V77a12.78,12.78,0,0,1,1.79,2.23,19.77,19.77,0,0,1,1.39,2.61A17,17,0,0,1,52.19,84.57ZM42.44,81a1.09,1.09,0,0,0,.85-1.22,5,5,0,0,0-.81-2.39,8.76,8.76,0,0,0-2.43-2.57l-2.61-1.91v5.27L39.83,80q1.76,1.29,2.61,1.08m-5-19.15V66.1L40,68a3.36,3.36,0,0,0,2.1.9.81.81,0,0,0,.71-.9h0a4.06,4.06,0,0,0-.76-2,8.72,8.72,0,0,0-2.33-2.36l-2.32-1.7"/><path d="M74.5,81.47l7.27,36.67-9.23-6.76-1.49-8.45-6.29-4.61-1.37,6.36-9.28-6.79L61.2,71.74ZM65.83,93l4.1,3L69,90.37c-.18-1.12-.34-2.11-.48-3s-.23-1.54-.29-2.08-.15-1.21-.19-1.67l-.53-.39a8.8,8.8,0,0,1-.17,1.41c-.09.52-.15,1-.27,1.66s-.25,1.4-.39,2.24L65.83,93"/><polygon points="108.28 106.19 108.33 137.57 99.45 131.07 99.43 118.96 92.2 113.67 92.22 125.78 83.34 119.28 83.29 87.9 92.17 94.4 92.19 105.63 99.42 110.93 99.4 99.69 108.28 106.19"/><path d="M140.06,129.44v31.38L125.73,150.3l-3.91-22.15c-.24-1.34-.44-2.49-.6-3.44s-.3-1.76-.39-2.41-.21-1.35-.27-1.87L120,120v1.71c0,.71.06,1.34.07,2.2s0,1.9,0,3.13l.08,19.21-8.35-6.11,0-31.38,14.59,10.68,3.56,20.4c.23,1.37.44,2.59.6,3.64s.31,2,.43,2.73.23,1.65.32,2.33l.58.42c0-.62-.06-1.35-.1-2.16s0-1.53,0-2.5v-3.2l-.07-17.77Z"/><path d="M64.18,51a9.27,9.27,0,0,1-2.1,2,15,15,0,0,1-4.3,2.12,15.88,15.88,0,0,1-5.17.71,19.08,19.08,0,0,1-5.7-1A21.78,21.78,0,0,1,41,51.65L28.43,42.52,60.2,19.6l12.12,8.81a18.7,18.7,0,0,1,4.28,4,7.84,7.84,0,0,1,1.54,3.66,5.23,5.23,0,0,1-.73,3.21A9.58,9.58,0,0,1,74.94,42a12.73,12.73,0,0,1-5,2.29,10.91,10.91,0,0,1-4.89,0l-.32.22a3.92,3.92,0,0,1,.89,2,5,5,0,0,1-.22,2.2A7.32,7.32,0,0,1,64.18,51ZM50.62,46.41a4.48,4.48,0,0,0,2.74-.71,2.17,2.17,0,0,0,1-1.91c0-.79-.57-1.57-1.67-2.37L50,39.49l-5.3,3.85,2.43,1.76a6,6,0,0,0,3.49,1.31m10.61-15-4.22,3,2.63,1.91a5.16,5.16,0,0,0,2.78,1.09,3.32,3.32,0,0,0,2.17-.52,1.65,1.65,0,0,0,.69-1.61c-.06-.7-.63-1.43-1.69-2.2l-2.36-1.71"/><path d="M56.8,17.13,36.32,31.91a21.69,21.69,0,0,1-6.44,3.29,17.56,17.56,0,0,1-12.21-.71A29.15,29.15,0,0,1,12,31.27,22.27,22.27,0,0,1,7.6,27.14a8.53,8.53,0,0,1-1.9-4.29,7,7,0,0,1,1.08-4.46,16.13,16.13,0,0,1,4.58-4.62L31.84-1,41,5.63l-19.47,14a9.56,9.56,0,0,0-3,3.1c-.47,1,0,1.93,1.34,2.92a4.85,4.85,0,0,0,4.05,1,12.79,12.79,0,0,0,4.36-2.19l19.47-14Z"/><path d="M106.58,53.3,82.17,81.55l-9.4-6.82,6-6.47-6.4-4.65L63.47,68,54,61.11,93,43.48Zm-27,6.7,4.17,3,4.07-4.32c.83-.85,1.55-1.61,2.17-2.25s1.14-1.17,1.59-1.58L93,53.6l-.54-.39c-.48.29-1.06.63-1.74,1s-1.28.7-2.16,1.16-1.87,1-3,1.55l-6,3.06"/><path d="M173.24,101.73l-31.77,22.91L126.86,114l15.6-17,2.43-2.64c.68-.73,1.27-1.34,1.77-1.84l1.42-1.41-.54-.4c-.45.33-1,.74-1.65,1.25s-1.27,1-2.11,1.62-1.89,1.4-3.13,2.29l-19.37,14-8.49-6.16,31.77-22.92L159.4,91.67,145,107.29c-1,1-1.86,2-2.63,2.78l-2,2.08-1.81,1.77.59.43,2-1.61c.66-.51,1.47-1.12,2.44-1.82l3.29-2.37,17.9-13Z"/><polygon points="140.93 78.25 109.16 101.17 100.14 94.61 112.4 85.77 105.04 80.42 92.78 89.27 83.75 82.71 115.52 59.8 124.55 66.35 113.17 74.56 120.53 79.9 131.9 71.7 140.93 78.25"/><path d="M174,107.9,173.4,129a20.49,20.49,0,0,1-1.19,6.44,26.37,26.37,0,0,1-3,5.86,33.69,33.69,0,0,1-4.5,5.33,55.9,55.9,0,0,1-5.66,4.76,36.94,36.94,0,0,1-5.64,3.52A9.33,9.33,0,0,1,149,156.1a3.2,3.2,0,0,1-2.74-1.64,9.37,9.37,0,0,1-.86-4.92l.6-21.13,10.21-7.5L155.67,141a5.36,5.36,0,0,0,.6,3.26c.45.58,1.43.31,3-.81a8.89,8.89,0,0,0,3.11-3.6,12.3,12.3,0,0,0,.84-4.37l.57-20.08Z"/><path d="M194,168.56v20.23a9.6,9.6,0,0,1-.91,4.78,3.29,3.29,0,0,1-2.54,1.71,7.36,7.36,0,0,1-3.9-.88,30.78,30.78,0,0,1-5-3,41.5,41.5,0,0,1-5-4.26,28.09,28.09,0,0,1-3.82-4.87,22.87,22.87,0,0,1-2.51-5.4,20.87,20.87,0,0,1-.9-6.08V150.56l9,6.56v19.23a12.26,12.26,0,0,0,.63,4.08,7,7,0,0,0,2.64,3.26c1.36,1,2.26,1.23,2.69.69a5.45,5.45,0,0,0,.64-3.19V162Z"/><path d="M220.61,207.48a11.34,11.34,0,0,1,.34,2.66,6.48,6.48,0,0,1-.66,3.09,3,3,0,0,1-2,1.55,6.55,6.55,0,0,1-3.5-.46,21.14,21.14,0,0,1-5-2.89l-12.36-9-.05-31.38,11.92,8.72a37,37,0,0,1,4.84,4.18,25.57,25.57,0,0,1,3.23,4.1,16.5,16.5,0,0,1,1.84,3.89,13.23,13.23,0,0,1,.63,3.53,4.81,4.81,0,0,1-.89,3.37,2.22,2.22,0,0,1-2.36.74v.3a14.23,14.23,0,0,1,1.79,2.23,17.28,17.28,0,0,1,1.39,2.62A16.47,16.47,0,0,1,220.61,207.48Zm-9.77-3.54a1.08,1.08,0,0,0,.85-1.21,4.91,4.91,0,0,0-.81-2.4,8.76,8.76,0,0,0-2.43-2.57l-2.61-1.91v5.27l2.38,1.74q1.75,1.29,2.61,1.08m-5-19.15V189l2.59,1.9a3.31,3.31,0,0,0,2.1.9.8.8,0,0,0,.71-.88v0a4.16,4.16,0,0,0-.76-2,8.72,8.72,0,0,0-2.33-2.36l-2.32-1.7"/><path d="M242.92,204.38l7.27,36.67L241,234.27l-1.49-8.45-6.29-4.6-1.34,6.38-9.28-6.8,7.09-26.15Zm-8.67,11.54,4.1,3-.94-5.65c-.18-1.12-.34-2.11-.47-3s-.24-1.54-.3-2.08-.15-1.21-.18-1.67l-.54-.39a13.55,13.55,0,0,1-.17,1.41c-.06.45-.15,1-.27,1.67s-.25,1.4-.39,2.23l-.84,4.42"/><polygon points="276.7 229.1 276.75 260.48 267.87 253.98 267.85 241.87 260.62 236.58 260.64 248.69 251.76 242.2 251.71 210.82 260.59 217.31 260.61 228.55 267.84 233.84 267.82 222.61 276.7 229.1"/><path d="M308.48,252.35l0,31.38-14.38-10.46-3.91-22.16c-.24-1.34-.44-2.49-.6-3.44s-.3-1.75-.39-2.4-.21-1.36-.27-1.87l-.53-.39c0,.44,0,1,.05,1.7s0,1.34.06,2.2,0,1.9,0,3.13l.08,19.21-8.35-6.11-.05-31.38,14.6,10.63,3.56,20.4c.24,1.37.44,2.59.61,3.64s.3,2,.42,2.73.23,1.66.32,2.34l.58.42c0-.63-.06-1.36-.09-2.17s-.05-1.52-.05-2.49V264l-.06-17.74Z"/><path d="M232.6,173.91a9.72,9.72,0,0,1-2.1,2,15.26,15.26,0,0,1-4.3,2.12,16.44,16.44,0,0,1-5.17.71,19.73,19.73,0,0,1-5.7-1,22.14,22.14,0,0,1-5.9-3.13l-12.59-9.18,31.76-22.91,12.12,8.8a18.7,18.7,0,0,1,4.28,4,7.76,7.76,0,0,1,1.54,3.65,5.22,5.22,0,0,1-.7,3.3,9.41,9.41,0,0,1-2.47,2.71,12.86,12.86,0,0,1-5,2.28,10.63,10.63,0,0,1-4.89.05l-.31.23a4.15,4.15,0,0,1,.88,2,4.78,4.78,0,0,1-.22,2.19A7.34,7.34,0,0,1,232.6,173.91ZM219,169.33a4.49,4.49,0,0,0,2.74-.72,2.16,2.16,0,0,0,1-1.91c0-.78-.57-1.57-1.67-2.37l-2.64-1.92-5.35,3.86,2.43,1.76a6.18,6.18,0,0,0,3.49,1.32m10.61-15-4.22,3.05,2.63,1.91a5.12,5.12,0,0,0,2.78,1.06,3.39,3.39,0,0,0,2.17-.51,1.66,1.66,0,0,0,.69-1.62c-.06-.7-.63-1.43-1.69-2.2l-2.36-1.71"/><path d="M225.22,140.05l-20.48,14.77a21.11,21.11,0,0,1-6.44,3.29,17.4,17.4,0,0,1-6.21.74,17.77,17.77,0,0,1-6-1.45,29.15,29.15,0,0,1-5.64-3.22,22.77,22.77,0,0,1-4.43-4.12,8.57,8.57,0,0,1-1.93-4.3,7.16,7.16,0,0,1,1.08-4.46,16.22,16.22,0,0,1,4.58-4.61l20.48-14.78,9.13,6.63-19.47,14a9.56,9.56,0,0,0-3,3.1c-.48,1,0,1.93,1.33,2.92a4.83,4.83,0,0,0,4.05,1.06,13,13,0,0,0,4.36-2.2l19.47-14Z"/><path d="M275,176.21l-24.41,28.26-9.4-6.83,6-6.47-6.4-4.65-8.87,4.36L222.48,184l39-17.63Zm-27,6.65,4.17,3,4.07-4.31,2.17-2.26c.62-.64,1.14-1.17,1.59-1.57s.95-.91,1.37-1.25l-.54-.4c-.48.3-1.05.63-1.74,1s-1.28.7-2.16,1.16l-3,1.55-6,3.06"/><path d="M341.66,224.64l-31.77,22.92-14.61-10.62,15.6-17,2.43-2.64c.68-.72,1.27-1.34,1.78-1.83s1-1,1.41-1.42l-.54-.39c-.45.32-1,.73-1.65,1.25s-1.27,1-2.11,1.61-1.89,1.4-3.13,2.3l-19.37,14-8.49-6.17L313,203.74l14.86,10.85-14.45,15.62L310.76,233c-.79.8-1.45,1.49-2,2.07l-1.82,1.77.59.43,2-1.61c.66-.5,1.47-1.12,2.44-1.82l3.29-2.37,17.9-13Z"/><polygon points="309.35 201.17 277.58 224.08 268.56 217.52 280.82 208.68 273.46 203.34 261.2 212.18 252.18 205.62 283.94 182.71 292.97 189.27 281.59 197.47 288.95 202.81 300.32 194.61 309.35 201.17"/><path d="M342.37,230.81l-.59,21.13a20.79,20.79,0,0,1-1.2,6.44,26.44,26.44,0,0,1-3,5.87,34.07,34.07,0,0,1-4.5,5.32,52.42,52.42,0,0,1-5.66,4.76,36.94,36.94,0,0,1-5.64,3.52,9.26,9.26,0,0,1-4.33,1.17,3.23,3.23,0,0,1-2.74-1.65,9.37,9.37,0,0,1-.86-4.92l.6-21.13,10.21-7.5-.57,20.09a5.46,5.46,0,0,0,.6,3.25c.45.58,1.43.32,3-.8a8.91,8.91,0,0,0,3.11-3.61,12.29,12.29,0,0,0,.84-4.36l.57-20.09Z"/><path d="M360.81,290.84v20.24a9.45,9.45,0,0,1-.9,4.77,3.28,3.28,0,0,1-2.54,1.72,7.35,7.35,0,0,1-3.9-.89,30.08,30.08,0,0,1-5-3,40.54,40.54,0,0,1-5-4.25,28.43,28.43,0,0,1-3.87-4.81,22.45,22.45,0,0,1-2.5-5.4,20.11,20.11,0,0,1-.9-6.07V272.91l9,6.56v19.24a12.51,12.51,0,0,0,.64,4.07,6.93,6.93,0,0,0,2.63,3.27c1.37,1,2.27,1.22,2.7.68a5.53,5.53,0,0,0,.64-3.19V284.31Z"/><path d="M387.46,329.76a11.42,11.42,0,0,1,.34,2.67,6.31,6.31,0,0,1-.67,3.08,2.94,2.94,0,0,1-2,1.55,6.36,6.36,0,0,1-3.5-.46,20.77,20.77,0,0,1-5-2.88l-12.36-9.05V293.29L376.19,302A35.15,35.15,0,0,1,381,306.2a25.49,25.49,0,0,1,3.23,4.09,16.5,16.5,0,0,1,1.84,3.89,13.23,13.23,0,0,1,.63,3.53,4.9,4.9,0,0,1-.89,3.38,2.22,2.22,0,0,1-2.36.73v.3a14.23,14.23,0,0,1,1.79,2.23,18.77,18.77,0,0,1,1.39,2.62A18.12,18.12,0,0,1,387.46,329.76Zm-9.75-3.54a1.08,1.08,0,0,0,.85-1.21,5,5,0,0,0-.81-2.4,8.72,8.72,0,0,0-2.43-2.56l-2.61-1.91v5.26l2.38,1.75c1.17.85,2,1.22,2.61,1.07m-5-19.14v4.17l2.59,1.89a3.32,3.32,0,0,0,2.1.91.8.8,0,0,0,.71-.9h0a4.16,4.16,0,0,0-.76-2,8.87,8.87,0,0,0-2.33-2.36l-2.32-1.69"/><path d="M409.77,326.67,417,363.33l-9.23-6.76-1.49-8.45-6.29-4.6-1.33,6.39-9.28-6.79,7.09-26.21Zm-8.67,11.54,4.1,3-.94-5.64c-.18-1.13-.34-2.11-.48-3s-.23-1.53-.29-2.07-.15-1.21-.19-1.67l-.53-.39a8.69,8.69,0,0,1-.17,1.4c-.09.52-.15,1-.27,1.67s-.25,1.4-.39,2.23l-.84,4.43"/><polygon points="443.55 351.38 443.6 382.76 434.72 376.27 434.7 364.16 427.47 358.86 427.49 370.98 418.61 364.48 418.56 333.1 427.44 339.6 427.46 350.83 434.69 356.12 434.67 344.89 443.55 351.38"/><path d="M475.32,374.64l.05,31.38L461,395.5l-3.91-22.15c-.24-1.35-.44-2.49-.6-3.45s-.3-1.75-.39-2.4-.21-1.35-.27-1.87l-.53-.39V367c0,.71.06,1.33.07,2.19s0,1.91,0,3.14l.07,19.2-8.34-6.1L447.05,354l14.59,10.68,3.56,20.4c.23,1.37.44,2.58.6,3.64s.31,2,.43,2.73.22,1.65.32,2.33l.58.42c0-.63-.06-1.35-.1-2.17s0-1.52,0-2.49v-3.25l0-17.76Z"/><path d="M399.45,296.19a10,10,0,0,1-2.1,2,14.79,14.79,0,0,1-4.31,2.12,15.82,15.82,0,0,1-5.16.71,19.14,19.14,0,0,1-5.7-1,22.14,22.14,0,0,1-5.9-3.13l-12.58-9.13,31.77-22.91,12.12,8.8a18.67,18.67,0,0,1,4.27,4,7.78,7.78,0,0,1,1.55,3.65,5.28,5.28,0,0,1-.73,3.22,9.5,9.5,0,0,1-2.47,2.7,12.88,12.88,0,0,1-5,2.29,10.63,10.63,0,0,1-4.89,0l-.32.23a3.92,3.92,0,0,1,.89,2,4.78,4.78,0,0,1-.22,2.19A7.18,7.18,0,0,1,399.45,296.19Zm-13.56-4.58a4.49,4.49,0,0,0,2.74-.72,2.16,2.16,0,0,0,1-1.91c0-.78-.57-1.57-1.67-2.37l-2.65-1.92L380,288.53l2.43,1.77a6.17,6.17,0,0,0,3.49,1.31m10.61-15-4.22,3.05,2.63,1.91a5.15,5.15,0,0,0,2.78,1.08,3.38,3.38,0,0,0,2.17-.51,1.66,1.66,0,0,0,.69-1.62,3.52,3.52,0,0,0-1.69-2.19l-2.36-1.72"/><path d="M392.07,262.33,371.59,277.1a21.36,21.36,0,0,1-6.44,3.3,17.62,17.62,0,0,1-6.21.73,18,18,0,0,1-6-1.44,29.45,29.45,0,0,1-5.64-3.22,22.27,22.27,0,0,1-4.43-4.13,8.48,8.48,0,0,1-1.93-4.3,7.12,7.12,0,0,1,1.08-4.45A16.25,16.25,0,0,1,346.6,259l20.48-14.77,9.12,6.62-19.46,14a9.56,9.56,0,0,0-3,3.1c-.47.95,0,1.93,1.34,2.92a4.89,4.89,0,0,0,4.05,1,12.64,12.64,0,0,0,4.36-2.2l19.47-14Z"/><path d="M441.85,298.5l-24.41,28.25L408,319.91l6-6.46-6.4-4.66-8.88,4.36-9.43-6.85,39-17.64Zm-27,6.64,4.18,3,4.07-4.31,2.17-2.25c.62-.64,1.14-1.17,1.59-1.58s.95-.91,1.37-1.25l-.54-.4c-.48.3-1.06.63-1.74,1s-1.29.71-2.16,1.16l-3,1.55-6,3.06"/><path d="M508.51,346.91l-31.77,22.91L462.13,359.2l15.6-17c.94-1,1.75-1.9,2.43-2.63s1.27-1.34,1.77-1.84l1.42-1.41-.55-.4c-.44.32-1,.74-1.64,1.25s-1.27,1-2.11,1.62-1.89,1.4-3.13,2.29l-19.37,14-8.49-6.17L479.83,326l14.84,10.91-14.45,15.62c-1,1.05-1.86,2-2.64,2.78l-2,2.08-1.81,1.77.59.42,2-1.6c.65-.51,1.47-1.12,2.44-1.83l3.29-2.37,17.9-13Z"/><polygon points="476.2 323.45 444.43 346.36 435.4 339.81 447.67 330.96 440.31 325.62 428.05 334.46 419.02 327.91 450.79 304.99 459.82 311.55 448.44 319.75 455.8 325.1 467.17 316.89 476.2 323.45"/><path d="M509.22,353.09l-.6,21.13a20.55,20.55,0,0,1-1.19,6.45,26.37,26.37,0,0,1-3,5.86,33.63,33.63,0,0,1-4.49,5.33,55.9,55.9,0,0,1-5.66,4.76,36.88,36.88,0,0,1-5.64,3.51,9.38,9.38,0,0,1-4.33,1.17,3.2,3.2,0,0,1-2.74-1.65,9.27,9.27,0,0,1-.86-4.92l.6-21.13,10.21-7.49L491,386.19a5.36,5.36,0,0,0,.6,3.26c.45.58,1.43.31,3-.81a8.72,8.72,0,0,0,3.1-3.6,12.09,12.09,0,0,0,.85-4.37l.57-20.08Z"/><path d="M528.5,414v20.23a9.37,9.37,0,0,1-.91,4.78,3.29,3.29,0,0,1-2.53,1.71,7.41,7.41,0,0,1-3.91-.89,30.69,30.69,0,0,1-4.94-3,42.29,42.29,0,0,1-5-4.26,28,28,0,0,1-3.87-4.8,22.45,22.45,0,0,1-2.5-5.4,20.22,20.22,0,0,1-.9-6.08V396l9,6.56v19.23a12.83,12.83,0,0,0,.63,4.08,7,7,0,0,0,2.64,3.26q2.06,1.5,2.7.69a5.53,5.53,0,0,0,.64-3.19V407.44Z"/><path d="M555.15,452.91a11.34,11.34,0,0,1,.34,2.66,6.37,6.37,0,0,1-.67,3.09,2.94,2.94,0,0,1-2,1.55,6.55,6.55,0,0,1-3.5-.46,20.8,20.8,0,0,1-5-2.89l-12.37-9V416.48l11.91,8.72a36.48,36.48,0,0,1,4.85,4.18,25.57,25.57,0,0,1,3.23,4.1,16.5,16.5,0,0,1,1.84,3.89,13.15,13.15,0,0,1,.63,3.52,4.9,4.9,0,0,1-.89,3.38,2.21,2.21,0,0,1-2.36.73v.31a13.16,13.16,0,0,1,1.79,2.23,18.77,18.77,0,0,1,1.39,2.62A16.38,16.38,0,0,1,555.15,452.91Zm-9.75-3.54a1.09,1.09,0,0,0,.85-1.22,5,5,0,0,0-.81-2.39,8.63,8.63,0,0,0-2.43-2.57l-2.61-1.91v5.27l2.38,1.74q1.76,1.29,2.61,1.08m-5-19.15v4.17l2.59,1.9a3.31,3.31,0,0,0,2.1.9.81.81,0,0,0,.72-.88v0a4.16,4.16,0,0,0-.76-2,8.9,8.9,0,0,0-2.33-2.37l-2.32-1.7"/><path d="M577.46,449.8l7.27,36.67-9.24-6.76L574,471.26l-6.29-4.6L566.34,473l-9.29-6.8,7.1-26.15Zm-8.68,11.54,4.11,3-.95-5.64c-.17-1.12-.33-2.11-.47-3s-.23-1.54-.29-2.08S571,452.41,571,452l-.53-.39a10,10,0,0,1-.17,1.41c-.08.52-.15,1-.27,1.67l-.4,2.23-.84,4.42"/><polygon points="611.24 474.52 611.28 505.9 602.41 499.4 602.39 487.29 595.16 482 595.18 494.11 586.3 487.62 586.25 456.24 595.13 462.73 595.14 473.97 602.38 479.26 602.36 468.02 611.24 474.52"/><path d="M643,497.77v31.38l-14.37-10.51-3.91-22.16c-.24-1.34-.44-2.49-.61-3.44s-.29-1.75-.38-2.4-.21-1.36-.27-1.87l-.53-.39v1.7c0,.7.05,1.34.07,2.2s0,1.9,0,3.13l.07,19.21-8.34-6.11-.05-31.38,14.72,10.68,3.6,20.4c.23,1.37.44,2.59.6,3.64s.31,2,.43,2.73.22,1.66.32,2.34l.57.42a19,19,0,0,0-.09-2.17,22.93,22.93,0,0,1,0-2.49v-3.25l-.07-17.77Z"/><path d="M567.14,419.33a10,10,0,0,1-2.1,2,14.79,14.79,0,0,1-4.31,2.12,15.83,15.83,0,0,1-5.16.72,19.79,19.79,0,0,1-5.7-1.05A22.14,22.14,0,0,1,544,420l-12.58-9.14,31.77-22.94,12.12,8.8a18.45,18.45,0,0,1,4.27,4.05,7.56,7.56,0,0,1,1.54,3.65,5.23,5.23,0,0,1-.72,3.21,9.67,9.67,0,0,1-2.47,2.71,12.86,12.86,0,0,1-5,2.28,10.63,10.63,0,0,1-4.89,0l-.32.23a4,4,0,0,1,.88,2,4.78,4.78,0,0,1-.21,2.19A7.49,7.49,0,0,1,567.14,419.33Zm-13.56-4.58a4.46,4.46,0,0,0,2.73-.72,2.16,2.16,0,0,0,1-1.91c0-.78-.57-1.57-1.67-2.37L553,407.83l-5.33,3.84,2.43,1.76a6.18,6.18,0,0,0,3.49,1.32m10.61-15-4.22,3,2.63,1.92a5.07,5.07,0,0,0,2.78,1.08,3.38,3.38,0,0,0,2.17-.51,1.66,1.66,0,0,0,.69-1.62,3.53,3.53,0,0,0-1.69-2.2l-2.36-1.71"/><path d="M559.76,385.47l-20.48,14.77a21.11,21.11,0,0,1-6.44,3.29,17.46,17.46,0,0,1-12.18-.71A27.88,27.88,0,0,1,515,399.6a22.55,22.55,0,0,1-4.44-4.12,8.59,8.59,0,0,1-1.92-4.3,7.16,7.16,0,0,1,1.08-4.46,16.22,16.22,0,0,1,4.58-4.61l20.48-14.78,9.12,6.63-19.46,14a9.56,9.56,0,0,0-3,3.1c-.47,1,0,1.93,1.34,2.92a4.84,4.84,0,0,0,4,1.06,13,13,0,0,0,4.37-2.2l19.46-14Z"/><path d="M609.54,421.63l-24.42,28.28-9.39-6.83,6-6.47-6.43-4.7-8.88,4.36L557,429.44l39-17.63Zm-27,6.65,4.18,3,4.07-4.31,2.16-2.26c.62-.64,1.15-1.17,1.6-1.57s1-.91,1.37-1.25l-.55-.4a19,19,0,0,1-1.73,1c-.73.37-1.29.7-2.16,1.16l-3,1.55-6,3.06"/><path d="M676.2,470.06,644.43,493l-14.61-10.62,15.6-17,2.43-2.64c.68-.73,1.26-1.34,1.77-1.83s1-1,1.42-1.42l-.55-.39c-.44.32-1,.73-1.64,1.25s-1.27,1-2.11,1.61-1.89,1.4-3.13,2.3l-19.37,14-8.49-6.17,31.77-22.91,14.84,10.78L647.9,475.63c-1,1-1.85,2-2.63,2.78l-2,2.07-1.81,1.77.58.43,2.05-1.61c.65-.5,1.46-1.12,2.44-1.82l3.29-2.37,17.9-13Z"/><polygon points="643.88 446.59 612.12 469.5 603.09 462.94 615.35 454.1 608 448.76 595.74 457.6 586.71 451.04 618.48 428.13 627.5 434.69 616.13 442.89 623.49 448.23 634.86 440.03 643.88 446.59"/><path d="M676.91,476.23l-.6,21.13a20,20,0,0,1-1.2,6.44,25.41,25.41,0,0,1-3,5.87,33.18,33.18,0,0,1-4.5,5.32,52.31,52.31,0,0,1-5.65,4.76,37,37,0,0,1-5.65,3.52,9.26,9.26,0,0,1-4.33,1.17,3.23,3.23,0,0,1-2.73-1.65,9.27,9.27,0,0,1-.86-4.92l.6-21.13,10.2-7.5-.56,20.09a5.32,5.32,0,0,0,.6,3.25c.45.58,1.43.32,3-.8a8.88,8.88,0,0,0,3.1-3.61,12.3,12.3,0,0,0,.85-4.36l.57-20.09Z"/></svg>